<svg width="190" height="91" viewBox="0 0 190 91" fill="none" xmlns="http://www.w3.org/2000/svg">
  <rect x="132.663" y="15.4965" width="9.92222" height="9.92222" rx="4.96111" fill="#2D91FE"/>
  <path d="M156.902 22.9576H156.077L155.565 21.6727H152.683L152.17 22.9576H151.345L153.672 17.1668H154.566L156.902 22.9576ZM155.348 21.0302L154.124 17.9134L152.891 21.0302H155.348ZM161.825 21.1431H159.741V20.5701H161.825V21.1431ZM168.333 22.9576H167.612V21.4904H164.86V20.8913L167.343 17.1668H168.333V20.8566H169.149V21.4904H168.333V22.9576ZM167.612 20.8566V17.8353L165.581 20.8566H167.612ZM172.167 23.0618C171.276 23.0618 170.596 22.7522 170.127 22.1328L170.569 21.6553C170.969 22.1647 171.501 22.4193 172.167 22.4193C172.561 22.4193 172.882 22.3007 173.131 22.0634C173.38 21.8261 173.504 21.5309 173.504 21.1778C173.504 20.8016 173.38 20.5006 173.131 20.2749C172.888 20.0434 172.569 19.9276 172.176 19.9276C171.655 19.9276 171.209 20.1099 170.839 20.4746L170.309 20.2923V17.1668H173.851V17.8092H171.03V19.8234C171.377 19.4762 171.828 19.3025 172.384 19.3025C172.893 19.3025 173.327 19.4704 173.686 19.8061C174.045 20.136 174.225 20.5846 174.225 21.1518C174.225 21.7306 174.031 22.1936 173.643 22.5409C173.255 22.8882 172.763 23.0618 172.167 23.0618ZM176.142 22.9055C176.049 22.9981 175.936 23.0444 175.803 23.0444C175.67 23.0444 175.557 22.9981 175.465 22.9055C175.372 22.8129 175.326 22.7001 175.326 22.5669C175.326 22.4338 175.372 22.321 175.465 22.2283C175.557 22.1357 175.67 22.0894 175.803 22.0894C175.936 22.0894 176.049 22.1357 176.142 22.2283C176.235 22.321 176.281 22.4338 176.281 22.5669C176.281 22.7001 176.235 22.8129 176.142 22.9055ZM178.209 22.9576H177.41L179.745 17.8092H176.629V17.1668H180.579V17.6616L178.209 22.9576ZM183.623 19.5369C183.363 19.8032 183.027 19.9363 182.616 19.9363C182.205 19.9363 181.87 19.8032 181.609 19.5369C181.354 19.2649 181.227 18.9263 181.227 18.5212C181.227 18.1102 181.357 17.7687 181.618 17.4967C181.878 17.2189 182.211 17.0799 182.616 17.0799C183.027 17.0799 183.363 17.2189 183.623 17.4967C183.89 17.7687 184.023 18.1102 184.023 18.5212C184.023 18.9263 183.89 19.2649 183.623 19.5369ZM182.538 22.9576H182.069L185.768 17.1668H186.245L182.538 22.9576ZM186.645 22.6624C186.384 22.9287 186.048 23.0618 185.637 23.0618C185.227 23.0618 184.891 22.9287 184.63 22.6624C184.376 22.3904 184.248 22.0518 184.248 21.6467C184.248 21.2357 184.379 20.8942 184.639 20.6222C184.9 20.3444 185.232 20.2054 185.637 20.2054C186.048 20.2054 186.384 20.3444 186.645 20.6222C186.905 20.8942 187.035 21.2357 187.035 21.6467C187.035 22.0518 186.905 22.3904 186.645 22.6624ZM181.991 19.2244C182.153 19.4096 182.361 19.5022 182.616 19.5022C182.871 19.5022 183.082 19.4096 183.25 19.2244C183.418 19.0334 183.502 18.799 183.502 18.5212C183.502 18.2318 183.418 17.9944 183.25 17.8092C183.088 17.6182 182.877 17.5227 182.616 17.5227C182.361 17.5227 182.153 17.6182 181.991 17.8092C181.829 17.9944 181.748 18.2318 181.748 18.5212C181.748 18.799 181.829 19.0334 181.991 19.2244ZM185.004 22.3499C185.172 22.5351 185.383 22.6277 185.637 22.6277C185.892 22.6277 186.103 22.5351 186.271 22.3499C186.439 22.1589 186.523 21.9245 186.523 21.6467C186.523 21.3573 186.439 21.1199 186.271 20.9347C186.109 20.7437 185.898 20.6482 185.637 20.6482C185.377 20.6482 185.166 20.7437 185.004 20.9347C184.842 21.1199 184.761 21.3573 184.761 21.6467C184.761 21.9245 184.842 22.1589 185.004 22.3499Z" fill="#0D0F52"/>
  <rect x="132.663" y="33.4576" width="9.92222" height="9.92222" rx="4.96111" fill="#4BDFFF"/>
  <path d="M154.584 40.9188H151.945V35.1279H154.523C155.021 35.1279 155.414 35.2639 155.704 35.536C155.999 35.808 156.147 36.1639 156.147 36.6038C156.147 36.9511 156.048 37.2463 155.851 37.4894C155.655 37.7267 155.414 37.8743 155.131 37.9322C155.438 37.9785 155.701 38.1405 155.921 38.4184C156.147 38.6962 156.259 39.0087 156.259 39.356C156.259 39.8248 156.109 40.2039 155.808 40.4933C155.513 40.777 155.105 40.9188 154.584 40.9188ZM154.402 37.637C154.72 37.637 154.966 37.5502 155.14 37.3765C155.313 37.2029 155.4 36.98 155.4 36.708C155.4 36.436 155.31 36.2131 155.131 36.0395C154.957 35.8601 154.714 35.7704 154.402 35.7704H152.665V37.637H154.402ZM154.436 40.2763C154.772 40.2763 155.035 40.1866 155.226 40.0072C155.417 39.8277 155.513 39.5846 155.513 39.2779C155.513 38.9943 155.417 38.757 155.226 38.566C155.041 38.3749 154.778 38.2794 154.436 38.2794H152.665V40.2763H154.436ZM161.57 39.1042H159.487V38.5312H161.57V39.1042ZM166.941 41.0229C166.05 41.0229 165.37 40.7133 164.901 40.094L165.344 39.6165C165.743 40.1258 166.276 40.3805 166.941 40.3805C167.335 40.3805 167.656 40.2618 167.905 40.0245C168.154 39.7872 168.278 39.492 168.278 39.139C168.278 38.7627 168.154 38.4618 167.905 38.236C167.662 38.0045 167.343 37.8888 166.95 37.8888C166.429 37.8888 165.983 38.0711 165.613 38.4357L165.083 38.2534V35.1279H168.626V35.7704H165.804V37.7846C166.151 37.4373 166.603 37.2637 167.158 37.2637C167.668 37.2637 168.102 37.4315 168.461 37.7672C168.819 38.0971 168.999 38.5457 168.999 39.1129C168.999 39.6917 168.805 40.1547 168.417 40.502C168.029 40.8493 167.537 41.0229 166.941 41.0229ZM171.845 40.9188H171.125V36.0829L170.196 37.064L169.761 36.6212L171.211 35.1279H171.845V40.9188ZM173.988 40.8667C173.896 40.9593 173.783 41.0056 173.65 41.0056C173.517 41.0056 173.404 40.9593 173.311 40.8667C173.219 40.7741 173.172 40.6612 173.172 40.5281C173.172 40.3949 173.219 40.2821 173.311 40.1895C173.404 40.0969 173.517 40.0506 173.65 40.0506C173.783 40.0506 173.896 40.0969 173.988 40.1895C174.081 40.2821 174.127 40.3949 174.127 40.5281C174.127 40.6612 174.081 40.7741 173.988 40.8667ZM177.396 41.0229C176.504 41.0229 175.824 40.7133 175.356 40.094L175.798 39.6165C176.198 40.1258 176.73 40.3805 177.396 40.3805C177.789 40.3805 178.111 40.2618 178.36 40.0245C178.608 39.7872 178.733 39.492 178.733 39.139C178.733 38.7627 178.608 38.4618 178.36 38.236C178.116 38.0045 177.798 37.8888 177.405 37.8888C176.884 37.8888 176.438 38.0711 176.067 38.4357L175.538 38.2534V35.1279H179.08V35.7704H176.258V37.7846C176.606 37.4373 177.057 37.2637 177.613 37.2637C178.122 37.2637 178.556 37.4315 178.915 37.7672C179.274 38.0971 179.453 38.5457 179.453 39.1129C179.453 39.6917 179.26 40.1547 178.872 40.502C178.484 40.8493 177.992 41.0229 177.396 41.0229ZM182.699 37.4981C182.439 37.7643 182.103 37.8974 181.692 37.8974C181.281 37.8974 180.945 37.7643 180.685 37.4981C180.43 37.226 180.303 36.8874 180.303 36.4823C180.303 36.0713 180.433 35.7298 180.694 35.4578C180.954 35.18 181.287 35.0411 181.692 35.0411C182.103 35.0411 182.439 35.18 182.699 35.4578C182.965 35.7298 183.099 36.0713 183.099 36.4823C183.099 36.8874 182.965 37.226 182.699 37.4981ZM181.614 40.9188H181.145L184.844 35.1279H185.321L181.614 40.9188ZM185.72 40.6236C185.46 40.8898 185.124 41.0229 184.713 41.0229C184.302 41.0229 183.967 40.8898 183.706 40.6236C183.452 40.3515 183.324 40.0129 183.324 39.6078C183.324 39.1968 183.454 38.8553 183.715 38.5833C183.975 38.3055 184.308 38.1666 184.713 38.1666C185.124 38.1666 185.46 38.3055 185.72 38.5833C185.981 38.8553 186.111 39.1968 186.111 39.6078C186.111 40.0129 185.981 40.3515 185.72 40.6236ZM181.067 37.1855C181.229 37.3707 181.437 37.4633 181.692 37.4633C181.947 37.4633 182.158 37.3707 182.326 37.1855C182.494 36.9945 182.578 36.7601 182.578 36.4823C182.578 36.1929 182.494 35.9556 182.326 35.7704C182.164 35.5794 181.952 35.4839 181.692 35.4839C181.437 35.4839 181.229 35.5794 181.067 35.7704C180.905 35.9556 180.824 36.1929 180.824 36.4823C180.824 36.7601 180.905 36.9945 181.067 37.1855ZM184.08 40.311C184.247 40.4962 184.459 40.5888 184.713 40.5888C184.968 40.5888 185.179 40.4962 185.347 40.311C185.515 40.12 185.599 39.8856 185.599 39.6078C185.599 39.3184 185.515 39.0811 185.347 38.8959C185.185 38.7049 184.974 38.6094 184.713 38.6094C184.453 38.6094 184.242 38.7049 184.08 38.8959C183.918 39.0811 183.836 39.3184 183.836 39.6078C183.836 39.8856 183.918 40.12 184.08 40.311Z" fill="#0D0F52"/>
  <rect x="132.663" y="51.4187" width="9.92222" height="9.92222" rx="4.96111" fill="#FFC359"/>
  <path d="M154.688 58.984C153.843 58.984 153.134 58.7062 152.561 58.1506C151.994 57.5891 151.71 56.8685 151.71 55.9888C151.71 55.109 151.994 54.3913 152.561 53.8357C153.134 53.2742 153.843 52.9935 154.688 52.9935C155.614 52.9935 156.346 53.3755 156.885 54.1395L156.277 54.4781C156.109 54.2292 155.883 54.0267 155.6 53.8704C155.316 53.7141 155.012 53.636 154.688 53.636C154.051 53.636 153.519 53.8588 153.091 54.3045C152.668 54.7444 152.457 55.3058 152.457 55.9888C152.457 56.6718 152.668 57.2361 153.091 57.6818C153.519 58.1216 154.051 58.3416 154.688 58.3416C155.012 58.3416 155.316 58.2663 155.6 58.1159C155.883 57.9596 156.109 57.7541 156.277 57.4994L156.893 57.838C156.332 58.602 155.597 58.984 154.688 58.984ZM161.977 57.0653H159.894V56.4923H161.977V57.0653ZM169.18 58.8799H165.204V58.3069C165.806 57.8322 166.272 57.456 166.602 57.1782C166.937 56.8946 167.258 56.5965 167.565 56.284C167.878 55.9656 168.098 55.6849 168.225 55.4418C168.352 55.1929 168.416 54.9469 168.416 54.7038C168.416 54.3566 168.297 54.0932 168.06 53.9138C167.823 53.7344 167.539 53.6446 167.209 53.6446C166.544 53.6446 166.02 53.8877 165.638 54.3739L165.195 53.9138C165.415 53.6244 165.701 53.4016 166.055 53.2453C166.413 53.0832 166.798 53.0022 167.209 53.0022C167.736 53.0022 168.19 53.1498 168.572 53.445C168.96 53.7402 169.154 54.1598 169.154 54.7038C169.154 55.2421 168.922 55.7804 168.459 56.3187C167.996 56.8512 167.29 57.4908 166.341 58.2374H169.18V58.8799ZM172.279 58.984C171.816 58.984 171.405 58.8943 171.046 58.7149C170.687 58.5355 170.412 58.3069 170.221 58.029L170.646 57.5776C170.82 57.8091 171.049 57.9943 171.332 58.1332C171.616 58.2721 171.926 58.3416 172.261 58.3416C172.684 58.3416 173.014 58.2461 173.251 58.0551C173.494 57.8583 173.616 57.592 173.616 57.2563C173.616 56.9091 173.485 56.6515 173.225 56.4836C172.97 56.3158 172.62 56.2319 172.174 56.2319C171.833 56.2319 171.633 56.2348 171.575 56.2406V55.5807C171.639 55.5865 171.839 55.5894 172.174 55.5894C172.568 55.5894 172.889 55.5113 173.138 55.355C173.393 55.1929 173.52 54.9527 173.52 54.6344C173.52 54.3276 173.396 54.0874 173.147 53.9138C172.904 53.7344 172.597 53.6446 172.226 53.6446C171.642 53.6446 171.133 53.8791 170.698 54.3479L170.299 53.8964C170.791 53.3003 171.451 53.0022 172.279 53.0022C172.852 53.0022 173.32 53.1411 173.685 53.4189C174.055 53.691 174.241 54.0672 174.241 54.5476C174.241 54.9296 174.113 55.2363 173.859 55.4679C173.604 55.6936 173.315 55.8354 172.99 55.8933C173.309 55.9222 173.61 56.0611 173.893 56.31C174.183 56.5589 174.328 56.8946 174.328 57.3171C174.328 57.8091 174.142 58.2114 173.772 58.5239C173.401 58.8307 172.904 58.984 172.279 58.984ZM176.269 58.8278C176.177 58.9204 176.064 58.9667 175.931 58.9667C175.797 58.9667 175.685 58.9204 175.592 58.8278C175.499 58.7352 175.453 58.6223 175.453 58.4892C175.453 58.3561 175.499 58.2432 175.592 58.1506C175.685 58.058 175.797 58.0117 175.931 58.0117C176.064 58.0117 176.177 58.058 176.269 58.1506C176.362 58.2432 176.408 58.3561 176.408 58.4892C176.408 58.6223 176.362 58.7352 176.269 58.8278ZM181.508 58.8799H177.532V58.3069C178.134 57.8322 178.6 57.456 178.93 57.1782C179.266 56.8946 179.587 56.5965 179.894 56.284C180.206 55.9656 180.426 55.6849 180.553 55.4418C180.681 55.1929 180.744 54.9469 180.744 54.7038C180.744 54.3566 180.626 54.0932 180.388 53.9138C180.151 53.7344 179.868 53.6446 179.538 53.6446C178.872 53.6446 178.348 53.8877 177.966 54.3739L177.523 53.9138C177.743 53.6244 178.03 53.4016 178.383 53.2453C178.742 53.0832 179.127 53.0022 179.538 53.0022C180.064 53.0022 180.519 53.1498 180.901 53.445C181.288 53.7402 181.482 54.1598 181.482 54.7038C181.482 55.2421 181.251 55.7804 180.788 56.3187C180.325 56.8512 179.619 57.4908 178.669 58.2374H181.508V58.8799ZM184.963 55.4592C184.702 55.7254 184.367 55.8585 183.956 55.8585C183.545 55.8585 183.209 55.7254 182.949 55.4592C182.694 55.1871 182.567 54.8485 182.567 54.4434C182.567 54.0324 182.697 53.691 182.957 53.4189C183.218 53.1411 183.551 53.0022 183.956 53.0022C184.367 53.0022 184.702 53.1411 184.963 53.4189C185.229 53.691 185.362 54.0324 185.362 54.4434C185.362 54.8485 185.229 55.1871 184.963 55.4592ZM183.878 58.8799H183.409L187.107 53.089H187.585L183.878 58.8799ZM187.984 58.5847C187.724 58.8509 187.388 58.984 186.977 58.984C186.566 58.984 186.23 58.8509 185.97 58.5847C185.715 58.3126 185.588 57.974 185.588 57.5689C185.588 57.1579 185.718 56.8165 185.979 56.5444C186.239 56.2666 186.572 56.1277 186.977 56.1277C187.388 56.1277 187.724 56.2666 187.984 56.5444C188.245 56.8165 188.375 57.1579 188.375 57.5689C188.375 57.974 188.245 58.3126 187.984 58.5847ZM183.331 55.1466C183.493 55.3318 183.701 55.4244 183.956 55.4244C184.21 55.4244 184.422 55.3318 184.59 55.1466C184.757 54.9556 184.841 54.7212 184.841 54.4434C184.841 54.154 184.757 53.9167 184.59 53.7315C184.428 53.5405 184.216 53.445 183.956 53.445C183.701 53.445 183.493 53.5405 183.331 53.7315C183.169 53.9167 183.088 54.154 183.088 54.4434C183.088 54.7212 183.169 54.9556 183.331 55.1466ZM186.343 58.2721C186.511 58.4573 186.722 58.5499 186.977 58.5499C187.232 58.5499 187.443 58.4573 187.611 58.2721C187.779 58.0811 187.863 57.8467 187.863 57.5689C187.863 57.2795 187.779 57.0422 187.611 56.857C187.449 56.666 187.238 56.5705 186.977 56.5705C186.717 56.5705 186.505 56.666 186.343 56.857C186.181 57.0422 186.1 57.2795 186.1 57.5689C186.1 57.8467 186.181 58.0811 186.343 58.2721Z" fill="#0D0F52"/>
  <rect x="132.663" y="69.3799" width="9.92222" height="9.92222" rx="4.96111" fill="#FF6769"/>
  <path d="M153.924 76.841H151.945V71.0501H153.924C154.81 71.0501 155.524 71.325 156.068 71.8749C156.618 72.4247 156.893 73.1164 156.893 73.9499C156.893 74.7891 156.618 75.4808 156.068 76.0249C155.524 76.5689 154.81 76.841 153.924 76.841ZM153.924 76.1985C154.607 76.1985 155.148 75.9843 155.548 75.556C155.947 75.1277 156.147 74.5923 156.147 73.9499C156.147 73.3016 155.95 72.7633 155.556 72.335C155.163 71.9067 154.619 71.6926 153.924 71.6926H152.665V76.1985H153.924ZM162.189 75.0264H160.106V74.4534H162.189V75.0264ZM167.56 76.9451C166.669 76.9451 165.989 76.6355 165.52 76.0162L165.963 75.5387C166.362 76.048 166.895 76.3027 167.56 76.3027C167.954 76.3027 168.275 76.184 168.524 75.9467C168.773 75.7094 168.897 75.4142 168.897 75.0612C168.897 74.6849 168.773 74.384 168.524 74.1582C168.281 73.9267 167.962 73.811 167.569 73.811C167.048 73.811 166.602 73.9933 166.232 74.3579L165.702 74.1756V71.0501H169.244V71.6926H166.423V73.7068C166.77 73.3595 167.222 73.1859 167.777 73.1859C168.287 73.1859 168.721 73.3537 169.079 73.6894C169.438 74.0193 169.618 74.4679 169.618 75.0351C169.618 75.6139 169.424 76.0769 169.036 76.4242C168.648 76.7715 168.156 76.9451 167.56 76.9451ZM172.464 76.841H171.743V72.0051L170.815 72.9862L170.38 72.5434L171.83 71.0501H172.464V76.841ZM174.607 76.7889C174.515 76.8815 174.402 76.9278 174.269 76.9278C174.136 76.9278 174.023 76.8815 173.93 76.7889C173.838 76.6963 173.791 76.5834 173.791 76.4503C173.791 76.3171 173.838 76.2043 173.93 76.1117C174.023 76.0191 174.136 75.9728 174.269 75.9728C174.402 75.9728 174.515 76.0191 174.607 76.1117C174.7 76.2043 174.746 76.3171 174.746 76.4503C174.746 76.5834 174.7 76.6963 174.607 76.7889ZM178.015 76.9451C177.123 76.9451 176.443 76.6355 175.974 76.0162L176.417 75.5387C176.817 76.048 177.349 76.3027 178.015 76.3027C178.408 76.3027 178.73 76.184 178.978 75.9467C179.227 75.7094 179.352 75.4142 179.352 75.0612C179.352 74.6849 179.227 74.384 178.978 74.1582C178.735 73.9267 178.417 73.811 178.023 73.811C177.503 73.811 177.057 73.9933 176.686 74.3579L176.157 74.1756V71.0501H179.699V71.6926H176.877V73.7068C177.225 73.3595 177.676 73.1859 178.232 73.1859C178.741 73.1859 179.175 73.3537 179.534 73.6894C179.893 74.0193 180.072 74.4679 180.072 75.0351C180.072 75.6139 179.878 76.0769 179.491 76.4242C179.103 76.7715 178.611 76.9451 178.015 76.9451ZM183.318 73.4203C183.058 73.6865 182.722 73.8196 182.311 73.8196C181.9 73.8196 181.564 73.6865 181.304 73.4203C181.049 73.1482 180.922 72.8096 180.922 72.4045C180.922 71.9935 181.052 71.6521 181.313 71.38C181.573 71.1022 181.906 70.9633 182.311 70.9633C182.722 70.9633 183.058 71.1022 183.318 71.38C183.584 71.6521 183.717 71.9935 183.717 72.4045C183.717 72.8096 183.584 73.1482 183.318 73.4203ZM182.233 76.841H181.764L185.463 71.0501H185.94L182.233 76.841ZM186.339 76.5458C186.079 76.812 185.743 76.9451 185.332 76.9451C184.921 76.9451 184.586 76.812 184.325 76.5458C184.071 76.2737 183.943 75.9351 183.943 75.53C183.943 75.119 184.073 74.7776 184.334 74.5055C184.594 74.2277 184.927 74.0888 185.332 74.0888C185.743 74.0888 186.079 74.2277 186.339 74.5055C186.6 74.7776 186.73 75.119 186.73 75.53C186.73 75.9351 186.6 76.2737 186.339 76.5458ZM181.686 73.1077C181.848 73.2929 182.056 73.3855 182.311 73.3855C182.566 73.3855 182.777 73.2929 182.945 73.1077C183.113 72.9167 183.197 72.6823 183.197 72.4045C183.197 72.1151 183.113 71.8778 182.945 71.6926C182.783 71.5016 182.571 71.4061 182.311 71.4061C182.056 71.4061 181.848 71.5016 181.686 71.6926C181.524 71.8778 181.443 72.1151 181.443 72.4045C181.443 72.6823 181.524 72.9167 181.686 73.1077ZM184.698 76.2332C184.866 76.4184 185.078 76.511 185.332 76.511C185.587 76.511 185.798 76.4184 185.966 76.2332C186.134 76.0422 186.218 75.8078 186.218 75.53C186.218 75.2406 186.134 75.0033 185.966 74.8181C185.804 74.6271 185.593 74.5316 185.332 74.5316C185.072 74.5316 184.861 74.6271 184.698 74.8181C184.536 75.0033 184.455 75.2406 184.455 75.53C184.455 75.8078 184.536 76.0422 184.698 76.2332Z" fill="#0D0F52"/>
  <path d="M3.67436 45.5847C2.30439 45.5847 1.18662 44.4732 1.26269 43.1054C1.63823 36.3522 3.54405 29.761 6.84918 23.8352C10.5578 17.1861 15.905 11.5957 22.3827 7.59528C28.8604 3.59485 36.2535 1.31723 43.8594 0.978877C50.6379 0.677325 57.3847 1.92495 63.5911 4.61334C64.8482 5.15788 65.3415 6.65506 64.728 7.87998L57.352 22.607C56.7385 23.8319 55.2515 24.3139 53.9681 23.8346C51.0521 22.7453 47.9385 22.2506 44.8119 22.3897C40.8568 22.5656 37.0124 23.75 33.644 25.8302C30.2756 27.9104 27.4951 30.8174 25.5666 34.275C24.0421 37.0082 23.0901 40.0138 22.7582 43.1089C22.6121 44.471 21.5152 45.5847 20.1452 45.5847L3.67436 45.5847Z" fill="#2D91FE" stroke="white" stroke-width="1.24028"/>
  <path d="M63.5568 7.31583C64.1322 6.07257 65.6104 5.52506 66.8198 6.16865C73.6696 9.81383 79.4648 15.1891 83.6173 21.7776C87.7697 28.366 90.119 35.9132 90.4525 43.6653C90.5113 45.034 89.3797 46.1314 88.0098 46.1142L71.5403 45.9074C70.1704 45.8902 69.0876 44.7628 68.9586 43.3989C68.6171 39.7872 67.4325 36.2935 65.486 33.205C63.5394 30.1165 60.8986 27.5406 57.7876 25.6744C56.6128 24.9697 56.0628 23.5065 56.6383 22.2632L63.5568 7.31583Z" fill="#FF6769" stroke="white" stroke-width="1.24028"/>
  <path d="M33.5173 85.9123C33.1169 87.2225 31.7271 87.9665 30.4412 87.4939C22.2792 84.4943 15.152 79.1685 9.95678 72.1505C4.76159 65.1325 1.74904 56.7607 1.26348 48.0785C1.18699 46.7107 2.3044 45.5988 3.67437 45.5983L20.1452 45.593C21.5152 45.5926 22.6124 46.706 22.759 48.0681C23.1987 52.1562 24.7185 56.0704 27.1825 59.3989C29.6465 62.7275 32.9463 65.324 36.7279 66.9383C37.9878 67.4762 38.7324 68.8507 38.3319 70.1608L33.5173 85.9123Z" fill="#FFC359" stroke="white" stroke-width="1.24028"/>
  <path d="M88.0132 45.5847C89.3832 45.5847 90.5009 46.6962 90.4249 48.0641C90.0804 54.2592 88.4477 60.3242 85.6209 65.8678C82.4178 72.1493 77.7727 77.5829 72.0658 81.7237C66.3589 85.8646 59.7524 88.5951 52.7872 89.6915C46.6401 90.6592 40.3678 90.33 34.3715 88.7357C33.0475 88.3837 32.3376 86.9763 32.7626 85.6739L37.8719 70.0156C38.2969 68.7132 39.6959 68.0159 41.0362 68.2995C43.7986 68.8842 46.6515 68.9615 49.4544 68.5203C53.0763 67.9501 56.5116 66.5303 59.4792 64.377C62.4468 62.2238 64.8623 59.3983 66.5279 56.132C67.8168 53.6042 68.6283 50.8681 68.9294 48.0606C69.0755 46.6985 70.1723 45.5847 71.5423 45.5847L88.0132 45.5847Z" fill="#4BDFFF" stroke="white" stroke-width="1.24028"/>
  </svg>
  