<svg width="218" height="155" viewBox="0 0 218 155" fill="none" xmlns="http://www.w3.org/2000/svg">
  <line x1="37.914" y1="9.74932" x2="216.514" y2="9.74932" stroke="#E5E5F3" stroke-width="0.620139" stroke-dasharray="1.24 2.48"/>
  <line x1="37.9139" y1="32.0743" x2="216.514" y2="32.0743" stroke="#E5E5F3" stroke-width="0.620139" stroke-dasharray="1.24 2.48"/>
  <line x1="37.9139" y1="54.3993" x2="216.514" y2="54.3993" stroke="#E5E5F3" stroke-width="0.620139" stroke-dasharray="1.24 2.48"/>
  <line x1="37.9139" y1="76.7243" x2="216.514" y2="76.7243" stroke="#E5E5F3" stroke-width="0.620139" stroke-dasharray="1.24 2.48"/>
  <g filter="url(#filter0_d_75_91)">
  <rect x="45.9758" y="64.3215" width="12.4028" height="13.0229" rx="2.48056" fill="#2D91FE"/>
  </g>
  <g filter="url(#filter1_d_75_91)">
  <rect x="71.2981" y="18.4312" width="12.4028" height="58.9132" rx="2.48056" fill="#2D91FE"/>
  </g>
  <g filter="url(#filter2_d_75_91)">
  <rect x="96.6204" y="38.8958" width="12.4028" height="38.4486" rx="2.48056" fill="#2D91FE"/>
  </g>
  <g filter="url(#filter3_d_75_91)">
  <rect x="121.943" y="54.3993" width="12.4028" height="22.9451" rx="2.48056" fill="#2D91FE"/>
  </g>
  <g filter="url(#filter4_d_75_91)">
  <rect x="147.265" y="16.5708" width="12.4028" height="60.7736" rx="2.48056" fill="#2D91FE"/>
  </g>
  <g filter="url(#filter5_d_75_91)">
  <rect x="172.587" y="36.4153" width="12.4028" height="40.9292" rx="2.48056" fill="#2D91FE"/>
  </g>
  <g filter="url(#filter6_d_75_91)">
  <rect x="197.91" y="7.88892" width="12.4028" height="69.4556" rx="2.48056" fill="#4BDFFF"/>
  </g>
  <path opacity="0.5" d="M42.3914 99.3171C41.8556 99.3171 41.4239 99.1261 41.0965 98.7441L41.4165 98.2753C41.6894 98.6027 42.0019 98.7664 42.3541 98.7664C42.6568 98.7664 42.8974 98.6721 43.076 98.4836C43.2596 98.2901 43.3513 98.0371 43.3513 97.7246V94.2642H43.969V97.732C43.969 98.248 43.8226 98.6424 43.5299 98.9152C43.2372 99.1831 42.8577 99.3171 42.3914 99.3171ZM48.059 99.2278H47.5009V98.8185C47.1982 99.1509 46.8014 99.3171 46.3102 99.3171C45.9778 99.3171 45.6851 99.2104 45.4321 98.9971C45.1791 98.7838 45.0526 98.4935 45.0526 98.1264C45.0526 97.7494 45.1766 97.4592 45.4247 97.2558C45.6777 97.0474 45.9729 96.9432 46.3102 96.9432C46.8212 96.9432 47.2181 97.1069 47.5009 97.4344V96.7869C47.5009 96.5488 47.4165 96.3628 47.2479 96.2288C47.0792 96.0949 46.8609 96.0279 46.593 96.0279C46.1713 96.0279 45.8042 96.1941 45.4916 96.5265L45.2312 96.1395C45.6132 95.7426 46.0919 95.5442 46.6674 95.5442C47.0792 95.5442 47.4141 95.6434 47.672 95.8418C47.93 96.0403 48.059 96.3454 48.059 96.7572V99.2278ZM46.5111 98.9152C46.9576 98.9152 47.2876 98.7664 47.5009 98.4687V97.7916C47.2876 97.4939 46.9576 97.3451 46.5111 97.3451C46.2532 97.3451 46.0398 97.4195 45.8712 97.5683C45.7074 97.7122 45.6256 97.9007 45.6256 98.1339C45.6256 98.3621 45.7074 98.5506 45.8712 98.6994C46.0398 98.8433 46.2532 98.9152 46.5111 98.9152ZM52.3108 99.2278H51.7526V96.8762C51.7526 96.5736 51.6832 96.3603 51.5443 96.2362C51.4054 96.1073 51.2069 96.0428 50.9489 96.0428C50.7406 96.0428 50.5372 96.0973 50.3387 96.2065C50.1452 96.3156 49.9939 96.4471 49.8848 96.6009V99.2278H49.3266V95.6335H49.8848V96.1544C50.0237 95.9907 50.2097 95.8493 50.4429 95.7302C50.6761 95.6062 50.9167 95.5442 51.1647 95.5442C51.9287 95.5442 52.3108 95.9311 52.3108 96.7051V99.2278Z" fill="#0D0F52"/>
  <path opacity="0.5" d="M67.8257 99.2278H67.2081V94.2642H70.4601V94.8149H67.8257V96.4148H70.408V96.9655H67.8257V99.2278ZM73.0483 99.3171C72.5125 99.3171 72.0735 99.1435 71.7311 98.7962C71.3888 98.4439 71.2177 97.9875 71.2177 97.4269C71.2177 96.901 71.3863 96.457 71.7237 96.0949C72.0611 95.7277 72.4828 95.5442 72.9888 95.5442C73.5196 95.5442 73.9388 95.7277 74.2464 96.0949C74.559 96.457 74.7153 96.9159 74.7153 97.4716V97.613H71.8056C71.8304 97.9652 71.9594 98.2604 72.1925 98.4985C72.4257 98.7366 72.7283 98.8557 73.1004 98.8557C73.5469 98.8557 73.9165 98.7044 74.2092 98.4018L74.4771 98.7664C74.11 99.1335 73.6337 99.3171 73.0483 99.3171ZM74.1646 97.2037C74.1596 96.8961 74.0554 96.6207 73.852 96.3776C73.6486 96.1296 73.3584 96.0056 72.9813 96.0056C72.6241 96.0056 72.3414 96.1271 72.133 96.3702C71.9296 96.6133 71.8204 96.8911 71.8056 97.2037H74.1646ZM76.3262 98.2529C76.4254 98.4117 76.5743 98.5456 76.7727 98.6548C76.9761 98.7639 77.1845 98.8185 77.3978 98.8185C77.755 98.8185 78.0378 98.6895 78.2461 98.4315C78.4545 98.1736 78.5587 97.8412 78.5587 97.4344C78.5587 97.0275 78.4545 96.6951 78.2461 96.4372C78.0378 96.1742 77.755 96.0428 77.3978 96.0428C77.1845 96.0428 76.9761 96.0998 76.7727 96.2139C76.5743 96.3231 76.4254 96.4595 76.3262 96.6232V98.2529ZM76.3262 99.2278H75.7681V94.2642H76.3262V96.1767C76.6387 95.755 77.0431 95.5442 77.5392 95.5442C78.0105 95.5442 78.395 95.7178 78.6926 96.0651C78.9903 96.4074 79.1391 96.8638 79.1391 97.4344C79.1391 98.0098 78.9903 98.4687 78.6926 98.8111C78.3999 99.1484 78.0155 99.3171 77.5392 99.3171C77.0381 99.3171 76.6338 99.1087 76.3262 98.692V99.2278Z" fill="#0D0F52"/>
  <path opacity="0.5" d="M98.6804 99.2278H98.0628V95.1423L96.3735 99.2278H96.1205L94.4387 95.1423V99.2278H93.821V94.2642H94.7066L96.247 97.9999L97.7949 94.2642H98.6804V99.2278ZM102.77 99.2278H102.212V98.8185C101.91 99.1509 101.513 99.3171 101.022 99.3171C100.689 99.3171 100.396 99.2104 100.143 98.9971C99.8904 98.7838 99.7639 98.4935 99.7639 98.1264C99.7639 97.7494 99.8879 97.4592 100.136 97.2558C100.389 97.0474 100.684 96.9432 101.022 96.9432C101.533 96.9432 101.929 97.1069 102.212 97.4344V96.7869C102.212 96.5488 102.128 96.3628 101.959 96.2288C101.791 96.0949 101.572 96.0279 101.304 96.0279C100.883 96.0279 100.516 96.1941 100.203 96.5265L99.9425 96.1395C100.324 95.7426 100.803 95.5442 101.379 95.5442C101.791 95.5442 102.125 95.6434 102.383 95.8418C102.641 96.0403 102.77 96.3454 102.77 96.7572V99.2278ZM101.222 98.9152C101.669 98.9152 101.999 98.7664 102.212 98.4687V97.7916C101.999 97.4939 101.669 97.3451 101.222 97.3451C100.964 97.3451 100.751 97.4195 100.582 97.5683C100.419 97.7122 100.337 97.9007 100.337 98.1339C100.337 98.3621 100.419 98.5506 100.582 98.6994C100.751 98.8433 100.964 98.9152 101.222 98.9152ZM104.596 99.2278H104.038V95.6335H104.596V96.2139C104.928 95.7773 105.328 95.5591 105.794 95.5591V96.1321C105.725 96.1172 105.65 96.1097 105.571 96.1097C105.402 96.1097 105.219 96.1693 105.02 96.2883C104.822 96.4074 104.68 96.5389 104.596 96.6827V99.2278Z" fill="#0D0F52"/>
  <path opacity="0.5" d="M124.683 99.2278H123.976L123.537 98.1264H121.067L120.627 99.2278H119.921L121.915 94.2642H122.681L124.683 99.2278ZM123.351 97.5757L122.302 94.9042L121.245 97.5757H123.351ZM127.23 99.3171C126.724 99.3171 126.319 99.1062 126.017 98.6846V100.597H125.459V95.6335H126.017V96.1693C126.151 95.9807 126.324 95.8294 126.538 95.7153C126.751 95.6012 126.982 95.5442 127.23 95.5442C127.706 95.5442 128.09 95.7153 128.383 96.0576C128.681 96.395 128.83 96.8514 128.83 97.4269C128.83 98.0024 128.681 98.4613 128.383 98.8036C128.09 99.1459 127.706 99.3171 127.23 99.3171ZM127.088 98.8185C127.441 98.8185 127.721 98.6895 127.929 98.4315C128.138 98.1686 128.242 97.8337 128.242 97.4269C128.242 97.0201 128.138 96.6877 127.929 96.4297C127.721 96.1717 127.441 96.0428 127.088 96.0428C126.875 96.0428 126.667 96.0998 126.463 96.2139C126.265 96.3231 126.116 96.457 126.017 96.6158V98.2381C126.116 98.4018 126.265 98.5407 126.463 98.6548C126.667 98.7639 126.875 98.8185 127.088 98.8185ZM130.424 99.2278H129.866V95.6335H130.424V96.2139C130.757 95.7773 131.156 95.5591 131.622 95.5591V96.1321C131.553 96.1172 131.478 96.1097 131.399 96.1097C131.23 96.1097 131.047 96.1693 130.848 96.2883C130.65 96.4074 130.509 96.5389 130.424 96.6827V99.2278Z" fill="#0D0F52"/>
  <path opacity="0.5" d="M150.906 99.2278H150.289V95.1423L148.599 99.2278H148.346L146.665 95.1423V99.2278H146.047V94.2642H146.933L148.473 97.9999L150.021 94.2642H150.906V99.2278ZM154.996 99.2278H154.438V98.8185C154.135 99.1509 153.739 99.3171 153.247 99.3171C152.915 99.3171 152.622 99.2104 152.369 98.9971C152.116 98.7838 151.99 98.4935 151.99 98.1264C151.99 97.7494 152.114 97.4592 152.362 97.2558C152.615 97.0474 152.91 96.9432 153.247 96.9432C153.758 96.9432 154.155 97.1069 154.438 97.4344V96.7869C154.438 96.5488 154.354 96.3628 154.185 96.2288C154.016 96.0949 153.798 96.0279 153.53 96.0279C153.109 96.0279 152.741 96.1941 152.429 96.5265L152.168 96.1395C152.55 95.7426 153.029 95.5442 153.605 95.5442C154.016 95.5442 154.351 95.6434 154.609 95.8418C154.867 96.0403 154.996 96.3454 154.996 96.7572V99.2278ZM153.448 98.9152C153.895 98.9152 154.225 98.7664 154.438 98.4687V97.7916C154.225 97.4939 153.895 97.3451 153.448 97.3451C153.19 97.3451 152.977 97.4195 152.808 97.5683C152.645 97.7122 152.563 97.9007 152.563 98.1339C152.563 98.3621 152.645 98.5506 152.808 98.6994C152.977 98.8433 153.19 98.9152 153.448 98.9152ZM156.063 100.634L156.152 100.128C156.242 100.168 156.343 100.188 156.457 100.188C156.586 100.188 156.693 100.16 156.777 100.106C156.862 100.051 156.934 99.9521 156.993 99.8082L157.231 99.265L155.728 95.6335H156.331L157.529 98.5804L158.72 95.6335H159.33L157.529 99.9571C157.331 100.433 156.978 100.676 156.472 100.686C156.323 100.686 156.187 100.669 156.063 100.634Z" fill="#0D0F52"/>
  <path opacity="0.5" d="M174.456 99.3171C173.92 99.3171 173.489 99.1261 173.161 98.7441L173.481 98.2753C173.754 98.6027 174.067 98.7664 174.419 98.7664C174.722 98.7664 174.962 98.6721 175.141 98.4836C175.324 98.2901 175.416 98.0371 175.416 97.7246V94.2642H176.034V97.732C176.034 98.248 175.887 98.6424 175.595 98.9152C175.302 99.1831 174.923 99.3171 174.456 99.3171ZM180.302 99.2278H179.744V98.7218C179.595 98.8904 179.407 99.0318 179.179 99.1459C178.955 99.26 178.717 99.3171 178.464 99.3171C177.7 99.3171 177.318 98.9351 177.318 98.1711V95.6335H177.876V97.9999C177.876 98.2976 177.943 98.5084 178.077 98.6325C178.216 98.7565 178.417 98.8185 178.68 98.8185C178.888 98.8185 179.089 98.7664 179.283 98.6622C179.481 98.558 179.635 98.4291 179.744 98.2753V95.6335H180.302V99.2278ZM184.55 99.2278H183.992V96.8762C183.992 96.5736 183.922 96.3603 183.783 96.2362C183.645 96.1073 183.446 96.0428 183.188 96.0428C182.98 96.0428 182.776 96.0973 182.578 96.2065C182.384 96.3156 182.233 96.4471 182.124 96.6009V99.2278H181.566V95.6335H182.124V96.1544C182.263 95.9907 182.449 95.8493 182.682 95.7302C182.915 95.6062 183.156 95.5442 183.404 95.5442C184.168 95.5442 184.55 95.9311 184.55 96.7051V99.2278Z" fill="#0D0F52"/>
  <path opacity="0.5" d="M201.069 99.3171C200.533 99.3171 200.102 99.1261 199.774 98.7441L200.094 98.2753C200.367 98.6027 200.68 98.7664 201.032 98.7664C201.335 98.7664 201.575 98.6721 201.754 98.4836C201.937 98.2901 202.029 98.0371 202.029 97.7246V94.2642H202.647V97.732C202.647 98.248 202.5 98.6424 202.208 98.9152C201.915 99.1831 201.535 99.3171 201.069 99.3171ZM206.915 99.2278H206.357V98.7218C206.208 98.8904 206.02 99.0318 205.792 99.1459C205.568 99.26 205.33 99.3171 205.077 99.3171C204.313 99.3171 203.931 98.9351 203.931 98.1711V95.6335H204.489V97.9999C204.489 98.2976 204.556 98.5084 204.69 98.6325C204.829 98.7565 205.03 98.8185 205.293 98.8185C205.501 98.8185 205.702 98.7664 205.896 98.6622C206.094 98.558 206.248 98.4291 206.357 98.2753V95.6335H206.915V99.2278ZM208.737 99.2278H208.179V94.2642H208.737V99.2278Z" fill="#0D0F52"/>
  <path opacity="0.5" d="M4.81588 11.2425C4.48514 11.2425 4.19161 11.1784 3.93528 11.0502C3.67896 10.9221 3.48258 10.7588 3.34615 10.5603L3.65002 10.2379C3.77405 10.4032 3.93735 10.5355 4.13993 10.6347C4.34251 10.734 4.56369 10.7836 4.80348 10.7836C5.10528 10.7836 5.34093 10.7154 5.51043 10.5789C5.68407 10.4384 5.77089 10.2482 5.77089 10.0084C5.77089 9.76034 5.67787 9.57637 5.49183 9.45648C5.30992 9.33658 5.0598 9.27664 4.74146 9.27664C4.49754 9.27664 4.35491 9.2787 4.31357 9.28284V8.81153C4.35904 8.81567 4.50168 8.81773 4.74146 8.81773C5.02259 8.81773 5.25204 8.76192 5.42982 8.6503C5.61172 8.53454 5.70268 8.36297 5.70268 8.13558C5.70268 7.91647 5.61379 7.74489 5.43602 7.62087C5.26238 7.4927 5.04326 7.42862 4.77867 7.42862C4.36111 7.42862 3.9973 7.59606 3.68723 7.93094L3.40196 7.60846C3.75337 7.18263 4.22468 6.96972 4.81588 6.96972C5.22517 6.96972 5.56005 7.06894 5.8205 7.26739C6.0851 7.4617 6.21739 7.73042 6.21739 8.07357C6.21739 8.34643 6.12644 8.56554 5.94453 8.73091C5.76262 8.89215 5.55591 8.99344 5.32439 9.03478C5.55178 9.05545 5.76676 9.15468 5.96934 9.33245C6.17605 9.51022 6.27941 9.75001 6.27941 10.0518C6.27941 10.4032 6.14711 10.6906 5.88252 10.9138C5.61793 11.1329 5.26238 11.2425 4.81588 11.2425ZM8.63991 11.2425C8.36705 11.2425 8.12519 11.1805 7.91434 11.0564C7.70763 10.9283 7.54226 10.7588 7.41823 10.5479C7.29834 10.3371 7.20739 10.1097 7.14537 9.86577C7.08749 9.62185 7.05855 9.36759 7.05855 9.103C7.05855 8.83841 7.08749 8.58415 7.14537 8.34023C7.20739 8.09631 7.29834 7.87099 7.41823 7.66428C7.54226 7.45343 7.70763 7.28599 7.91434 7.16196C8.12519 7.0338 8.36705 6.96972 8.63991 6.96972C8.90863 6.96972 9.14842 7.0338 9.35927 7.16196C9.57012 7.28599 9.73549 7.45343 9.85538 7.66428C9.97941 7.87099 10.0704 8.09631 10.1282 8.34023C10.1903 8.58415 10.2213 8.83841 10.2213 9.103C10.2213 9.36759 10.1903 9.62185 10.1282 9.86577C10.0704 10.1097 9.97941 10.3371 9.85538 10.5479C9.73549 10.7588 9.57012 10.9283 9.35927 11.0564C9.14842 11.1805 8.90863 11.2425 8.63991 11.2425ZM8.01977 10.5293C8.18514 10.6988 8.39185 10.7836 8.63991 10.7836C8.88796 10.7836 9.09468 10.6988 9.26005 10.5293C9.42542 10.3557 9.53911 10.149 9.60112 9.90918C9.66314 9.66939 9.69414 9.40066 9.69414 9.103C9.69414 8.80533 9.66314 8.5366 9.60112 8.29682C9.53911 8.05703 9.42542 7.85238 9.26005 7.68288C9.09468 7.51337 8.88796 7.42862 8.63991 7.42862C8.39185 7.42862 8.18514 7.51337 8.01977 7.68288C7.8544 7.85238 7.74071 8.05703 7.67869 8.29682C7.61668 8.5366 7.58567 8.80533 7.58567 9.103C7.58567 9.40066 7.61668 9.66939 7.67869 9.90918C7.74071 10.149 7.8544 10.3557 8.01977 10.5293ZM13.7641 11.1681H13.1688L12.0898 9.82236L11.5937 10.3123V11.1681H11.1286V7.03173H11.5937V9.76655L13.1688 8.17279H13.7579L12.4308 9.53089L13.7641 11.1681ZM17.519 11.2425C16.8492 11.2425 16.3201 11.0234 15.9314 10.5851L16.2353 10.1944C16.5867 10.5872 17.0208 10.7836 17.5376 10.7836C17.8725 10.7836 18.1185 10.7133 18.2756 10.5727C18.4327 10.428 18.5112 10.2606 18.5112 10.0704C18.5112 9.92572 18.4657 9.80375 18.3748 9.70453C18.2838 9.60531 18.166 9.52883 18.0213 9.47508C17.8807 9.4172 17.7216 9.36552 17.5438 9.32005C17.3702 9.27457 17.1965 9.22496 17.0229 9.17121C16.8492 9.11333 16.6901 9.04512 16.5454 8.96657C16.4048 8.88802 16.289 8.77639 16.1981 8.63169C16.1071 8.48699 16.0617 8.31542 16.0617 8.11698C16.0617 7.77797 16.196 7.50304 16.4648 7.29219C16.7335 7.07721 17.0725 6.96972 17.4818 6.96972C18.0978 6.96972 18.5877 7.16196 18.9515 7.54645L18.6414 7.92473C18.3396 7.59399 17.9407 7.42862 17.4446 7.42862C17.1965 7.42862 16.9919 7.49064 16.8306 7.61466C16.6735 7.73456 16.595 7.89166 16.595 8.08597C16.595 8.23067 16.6549 8.35056 16.7748 8.44565C16.8988 8.54074 17.0497 8.61102 17.2275 8.6565C17.4094 8.70197 17.6058 8.75985 17.8167 8.83014C18.0316 8.89628 18.228 8.96863 18.4058 9.04719C18.5877 9.1216 18.7386 9.24356 18.8585 9.41307C18.9825 9.58257 19.0445 9.78722 19.0445 10.027C19.0445 10.366 18.9184 10.6533 18.6662 10.889C18.4182 11.1247 18.0358 11.2425 17.519 11.2425ZM23.4176 11.1681H22.8284L22.4626 10.2503H20.4037L20.0378 11.1681H19.4487L21.1107 7.03173H21.7494L23.4176 11.1681ZM22.3075 9.79135L21.4331 7.56505L20.5525 9.79135H22.3075ZM27.0839 11.1681H26.4761L25.4219 9.52469H24.5971V11.1681H24.0824V7.03173H25.7444C26.1288 7.03173 26.441 7.14543 26.6808 7.37281C26.9206 7.60019 27.0404 7.902 27.0404 8.27821C27.0404 8.63376 26.9371 8.91696 26.7304 9.1278C26.5237 9.33865 26.2694 9.45648 25.9676 9.48128L27.0839 11.1681ZM25.6823 9.07199C25.9263 9.07199 26.1247 8.99757 26.2777 8.84874C26.4306 8.69991 26.5071 8.50973 26.5071 8.27821C26.5071 8.04669 26.4306 7.85859 26.2777 7.71389C26.1247 7.56505 25.9263 7.49064 25.6823 7.49064H24.5971V9.07199H25.6823Z" fill="#0D0F52"/>
  <path opacity="0.5" d="M6.14763 33.493H3.30739V33.0838C3.73736 32.7447 4.07016 32.476 4.30582 32.2776C4.5456 32.075 4.77505 31.8621 4.99417 31.6388C5.21742 31.4114 5.37452 31.2109 5.46548 31.0373C5.55643 30.8595 5.60191 30.6838 5.60191 30.5102C5.60191 30.2621 5.51715 30.074 5.34765 29.9458C5.17814 29.8177 4.97557 29.7536 4.73991 29.7536C4.26447 29.7536 3.89032 29.9272 3.61746 30.2745L3.30119 29.9458C3.45829 29.7391 3.66294 29.58 3.91513 29.4683C4.17145 29.3526 4.44638 29.2947 4.73991 29.2947C5.11613 29.2947 5.44067 29.4001 5.71353 29.611C5.99053 29.8218 6.12902 30.1216 6.12902 30.5102C6.12902 30.8947 5.96365 31.2791 5.63291 31.6636C5.30217 32.044 4.79779 32.5008 4.11977 33.0341H6.14763V33.493ZM8.63991 33.5675C8.36705 33.5675 8.12519 33.5054 7.91435 33.3814C7.70763 33.2533 7.54226 33.0838 7.41823 32.8729C7.29834 32.6621 7.20739 32.4347 7.14537 32.1908C7.08749 31.9468 7.05855 31.6926 7.05855 31.428C7.05855 31.1634 7.08749 30.9091 7.14537 30.6652C7.20739 30.4213 7.29834 30.196 7.41823 29.9893C7.54226 29.7784 7.70763 29.611 7.91435 29.4869C8.12519 29.3588 8.36705 29.2947 8.63991 29.2947C8.90863 29.2947 9.14842 29.3588 9.35927 29.4869C9.57012 29.611 9.73549 29.7784 9.85538 29.9893C9.97941 30.196 10.0704 30.4213 10.1282 30.6652C10.1903 30.9091 10.2213 31.1634 10.2213 31.428C10.2213 31.6926 10.1903 31.9468 10.1282 32.1908C10.0704 32.4347 9.97941 32.6621 9.85538 32.8729C9.73549 33.0838 9.57012 33.2533 9.35927 33.3814C9.14842 33.5054 8.90863 33.5675 8.63991 33.5675ZM8.01977 32.8543C8.18514 33.0238 8.39185 33.1086 8.63991 33.1086C8.88796 33.1086 9.09468 33.0238 9.26005 32.8543C9.42542 32.6807 9.53911 32.4739 9.60112 32.2342C9.66314 31.9944 9.69414 31.7256 9.69414 31.428C9.69414 31.1303 9.66314 30.8616 9.60112 30.6218C9.53911 30.382 9.42542 30.1774 9.26005 30.0079C9.09468 29.8384 8.88796 29.7536 8.63991 29.7536C8.39185 29.7536 8.18514 29.8384 8.01977 30.0079C7.8544 30.1774 7.74071 30.382 7.67869 30.6218C7.61668 30.8616 7.58567 31.1303 7.58567 31.428C7.58567 31.7256 7.61668 31.9944 7.67869 32.2342C7.74071 32.4739 7.8544 32.6807 8.01977 32.8543ZM13.7641 33.493H13.1688L12.0898 32.1473L11.5937 32.6373V33.493H11.1286V29.3567H11.5937V32.0915L13.1688 30.4978H13.7579L12.4308 31.8559L13.7641 33.493ZM17.519 33.5675C16.8492 33.5675 16.3201 33.3483 15.9314 32.9101L16.2353 32.5194C16.5867 32.9122 17.0208 33.1086 17.5376 33.1086C17.8725 33.1086 18.1185 33.0383 18.2756 32.8977C18.4327 32.753 18.5112 32.5856 18.5112 32.3954C18.5112 32.2507 18.4657 32.1287 18.3748 32.0295C18.2838 31.9303 18.166 31.8538 18.0213 31.8001C17.8807 31.7422 17.7216 31.6905 17.5438 31.645C17.3702 31.5996 17.1965 31.5499 17.0229 31.4962C16.8492 31.4383 16.6901 31.3701 16.5454 31.2915C16.4048 31.213 16.289 31.1014 16.1981 30.9567C16.1071 30.812 16.0617 30.6404 16.0617 30.442C16.0617 30.1029 16.196 29.828 16.4648 29.6172C16.7335 29.4022 17.0725 29.2947 17.4818 29.2947C18.0978 29.2947 18.5877 29.4869 18.9515 29.8714L18.6414 30.2497C18.3396 29.919 17.9407 29.7536 17.4446 29.7536C17.1965 29.7536 16.9919 29.8156 16.8306 29.9396C16.6735 30.0595 16.595 30.2166 16.595 30.411C16.595 30.5557 16.6549 30.6755 16.7748 30.7706C16.8989 30.8657 17.0498 30.936 17.2275 30.9815C17.4094 31.027 17.6058 31.0848 17.8167 31.1551C18.0316 31.2213 18.228 31.2936 18.4058 31.3722C18.5877 31.4466 18.7386 31.5685 18.8585 31.738C18.9825 31.9076 19.0445 32.1122 19.0445 32.352C19.0445 32.691 18.9184 32.9783 18.6662 33.214C18.4182 33.4496 18.0358 33.5675 17.519 33.5675ZM23.4176 33.493H22.8284L22.4626 32.5752H20.4037L20.0378 33.493H19.4487L21.1107 29.3567H21.7494L23.4176 33.493ZM22.3075 32.1163L21.4331 29.89L20.5525 32.1163H22.3075ZM27.0839 33.493H26.4761L25.4219 31.8497H24.5971V33.493H24.0824V29.3567H25.7444C26.1288 29.3567 26.441 29.4704 26.6808 29.6978C26.9206 29.9252 27.0404 30.227 27.0404 30.6032C27.0404 30.9587 26.9371 31.2419 26.7304 31.4528C26.5237 31.6636 26.2694 31.7815 25.9676 31.8063L27.0839 33.493ZM25.6823 31.397C25.9263 31.397 26.1247 31.3226 26.2777 31.1737C26.4306 31.0249 26.5071 30.8347 26.5071 30.6032C26.5071 30.3717 26.4306 30.1836 26.2777 30.0389C26.1247 29.89 25.9263 29.8156 25.6823 29.8156H24.5971V31.397H25.6823Z" fill="#0D0F52"/>
  <path opacity="0.5" d="M6.13537 55.8181H5.62065V52.3639L4.95711 53.0646L4.64704 52.7484L5.68267 51.6817H6.13537V55.8181ZM8.63991 55.8925C8.36705 55.8925 8.12519 55.8305 7.91434 55.7064C7.70763 55.5783 7.54226 55.4088 7.41823 55.1979C7.29834 54.9871 7.20739 54.7597 7.14537 54.5158C7.08749 54.2718 7.05855 54.0176 7.05855 53.753C7.05855 53.4884 7.08749 53.2341 7.14537 52.9902C7.20739 52.7463 7.29834 52.521 7.41823 52.3143C7.54226 52.1034 7.70763 51.936 7.91434 51.812C8.12519 51.6838 8.36705 51.6197 8.63991 51.6197C8.90863 51.6197 9.14842 51.6838 9.35927 51.812C9.57012 51.936 9.73549 52.1034 9.85538 52.3143C9.97941 52.521 10.0704 52.7463 10.1282 52.9902C10.1903 53.2341 10.2213 53.4884 10.2213 53.753C10.2213 54.0176 10.1903 54.2718 10.1282 54.5158C10.0704 54.7597 9.97941 54.9871 9.85538 55.1979C9.73549 55.4088 9.57012 55.5783 9.35927 55.7064C9.14842 55.8305 8.90863 55.8925 8.63991 55.8925ZM8.01977 55.1793C8.18514 55.3488 8.39185 55.4336 8.63991 55.4336C8.88796 55.4336 9.09468 55.3488 9.26005 55.1793C9.42542 55.0057 9.53911 54.799 9.60112 54.5592C9.66314 54.3194 9.69414 54.0507 9.69414 53.753C9.69414 53.4553 9.66314 53.1866 9.60112 52.9468C9.53911 52.707 9.42542 52.5024 9.26005 52.3329C9.09468 52.1634 8.88796 52.0786 8.63991 52.0786C8.39185 52.0786 8.18514 52.1634 8.01977 52.3329C7.8544 52.5024 7.74071 52.707 7.67869 52.9468C7.61668 53.1866 7.58567 53.4553 7.58567 53.753C7.58567 54.0507 7.61668 54.3194 7.67869 54.5592C7.74071 54.799 7.8544 55.0057 8.01977 55.1793ZM13.7641 55.8181H13.1688L12.0898 54.4723L11.5937 54.9623V55.8181H11.1286V51.6817H11.5937V54.4165L13.1688 52.8228H13.7579L12.4308 54.1809L13.7641 55.8181ZM17.519 55.8925C16.8492 55.8925 16.3201 55.6734 15.9314 55.2351L16.2353 54.8444C16.5867 55.2372 17.0208 55.4336 17.5376 55.4336C17.8725 55.4336 18.1185 55.3633 18.2756 55.2227C18.4327 55.078 18.5112 54.9106 18.5112 54.7204C18.5112 54.5757 18.4657 54.4537 18.3748 54.3545C18.2838 54.2553 18.166 54.1788 18.0213 54.1251C17.8807 54.0672 17.7216 54.0155 17.5438 53.97C17.3702 53.9246 17.1965 53.8749 17.0229 53.8212C16.8492 53.7633 16.6901 53.6951 16.5454 53.6166C16.4048 53.538 16.289 53.4264 16.1981 53.2817C16.1071 53.137 16.0617 52.9654 16.0617 52.767C16.0617 52.428 16.196 52.153 16.4648 51.9422C16.7335 51.7272 17.0725 51.6197 17.4818 51.6197C18.0978 51.6197 18.5877 51.812 18.9515 52.1964L18.6414 52.5747C18.3396 52.244 17.9407 52.0786 17.4446 52.0786C17.1965 52.0786 16.9919 52.1406 16.8306 52.2647C16.6735 52.3845 16.595 52.5416 16.595 52.736C16.595 52.8807 16.6549 53.0006 16.7748 53.0956C16.8988 53.1907 17.0497 53.261 17.2275 53.3065C17.4094 53.352 17.6058 53.4098 17.8167 53.4801C18.0316 53.5463 18.228 53.6186 18.4058 53.6972C18.5877 53.7716 18.7386 53.8936 18.8585 54.0631C18.9825 54.2326 19.0445 54.4372 19.0445 54.677C19.0445 55.016 18.9184 55.3033 18.6662 55.539C18.4182 55.7746 18.0358 55.8925 17.519 55.8925ZM23.4176 55.8181H22.8284L22.4626 54.9002H20.4037L20.0378 55.8181H19.4487L21.1107 51.6817H21.7494L23.4176 55.8181ZM22.3075 54.4413L21.4331 52.215L20.5525 54.4413H22.3075ZM27.0839 55.8181H26.4761L25.4219 54.1747H24.5971V55.8181H24.0824V51.6817H25.7444C26.1288 51.6817 26.441 51.7954 26.6808 52.0228C26.9206 52.2502 27.0404 52.552 27.0404 52.9282C27.0404 53.2837 26.9371 53.5669 26.7304 53.7778C26.5237 53.9886 26.2694 54.1065 25.9676 54.1313L27.0839 55.8181ZM25.6823 53.722C25.9263 53.722 26.1247 53.6476 26.2777 53.4987C26.4306 53.3499 26.5071 53.1597 26.5071 52.9282C26.5071 52.6967 26.4306 52.5086 26.2777 52.3639C26.1247 52.215 25.9263 52.1406 25.6823 52.1406H24.5971V53.722H25.6823Z" fill="#0D0F52"/>
  <path opacity="0.5" d="M11.9494 78.2175C11.6766 78.2175 11.4347 78.1555 11.2239 78.0314C11.0171 77.9033 10.8518 77.7338 10.7277 77.5229C10.6078 77.3121 10.5169 77.0847 10.4549 76.8408C10.397 76.5968 10.3681 76.3426 10.3681 76.078C10.3681 75.8134 10.397 75.5591 10.4549 75.3152C10.5169 75.0713 10.6078 74.846 10.7277 74.6393C10.8518 74.4284 11.0171 74.261 11.2239 74.137C11.4347 74.0088 11.6766 73.9447 11.9494 73.9447C12.2181 73.9447 12.4579 74.0088 12.6688 74.137C12.8796 74.261 13.045 74.4284 13.1649 74.6393C13.2889 74.846 13.3799 75.0713 13.4377 75.3152C13.4998 75.5591 13.5308 75.8134 13.5308 76.078C13.5308 76.3426 13.4998 76.5968 13.4377 76.8408C13.3799 77.0847 13.2889 77.3121 13.1649 77.5229C13.045 77.7338 12.8796 77.9033 12.6688 78.0314C12.4579 78.1555 12.2181 78.2175 11.9494 78.2175ZM11.3293 77.5043C11.4946 77.6738 11.7014 77.7586 11.9494 77.7586C12.1975 77.7586 12.4042 77.6738 12.5696 77.5043C12.7349 77.3307 12.8486 77.124 12.9106 76.8842C12.9726 76.6444 13.0036 76.3757 13.0036 76.078C13.0036 75.7803 12.9726 75.5116 12.9106 75.2718C12.8486 75.032 12.7349 74.8274 12.5696 74.6579C12.4042 74.4884 12.1975 74.4036 11.9494 74.4036C11.7014 74.4036 11.4946 74.4884 11.3293 74.6579C11.1639 74.8274 11.0502 75.032 10.9882 75.2718C10.9262 75.5116 10.8952 75.7803 10.8952 76.078C10.8952 76.3757 10.9262 76.6444 10.9882 76.8842C11.0502 77.124 11.1639 77.3307 11.3293 77.5043ZM17.519 78.2175C16.8492 78.2175 16.3201 77.9984 15.9314 77.5601L16.2353 77.1694C16.5867 77.5622 17.0208 77.7586 17.5376 77.7586C17.8725 77.7586 18.1185 77.6883 18.2756 77.5477C18.4327 77.403 18.5112 77.2356 18.5112 77.0454C18.5112 76.9007 18.4657 76.7788 18.3748 76.6795C18.2838 76.5803 18.166 76.5038 18.0213 76.4501C17.8807 76.3922 17.7216 76.3405 17.5438 76.295C17.3702 76.2496 17.1965 76.2 17.0229 76.1462C16.8492 76.0883 16.6901 76.0201 16.5454 75.9416C16.4048 75.863 16.289 75.7514 16.1981 75.6067C16.1071 75.462 16.0617 75.2904 16.0617 75.092C16.0617 74.753 16.196 74.478 16.4648 74.2672C16.7335 74.0522 17.0725 73.9447 17.4818 73.9447C18.0978 73.9447 18.5877 74.137 18.9515 74.5214L18.6414 74.8997C18.3396 74.569 17.9407 74.4036 17.4446 74.4036C17.1965 74.4036 16.9919 74.4656 16.8306 74.5897C16.6735 74.7096 16.595 74.8667 16.595 75.061C16.595 75.2057 16.6549 75.3256 16.7748 75.4206C16.8988 75.5157 17.0497 75.586 17.2275 75.6315C17.4094 75.677 17.6058 75.7349 17.8167 75.8051C18.0316 75.8713 18.228 75.9436 18.4058 76.0222C18.5877 76.0966 18.7386 76.2186 18.8585 76.3881C18.9825 76.5576 19.0445 76.7622 19.0445 77.002C19.0445 77.341 18.9184 77.6283 18.6662 77.864C18.4182 78.0996 18.0358 78.2175 17.519 78.2175ZM23.4176 78.1431H22.8284L22.4626 77.2253H20.4037L20.0378 78.1431H19.4487L21.1107 74.0067H21.7494L23.4176 78.1431ZM22.3075 76.7664L21.4331 74.5401L20.5525 76.7664H22.3075ZM27.0839 78.1431H26.4761L25.4219 76.4997H24.5971V78.1431H24.0824V74.0067H25.7444C26.1288 74.0067 26.441 74.1204 26.6808 74.3478C26.9206 74.5752 27.0404 74.877 27.0404 75.2532C27.0404 75.6088 26.9371 75.892 26.7304 76.1028C26.5237 76.3136 26.2694 76.4315 25.9676 76.4563L27.0839 78.1431ZM25.6823 76.047C25.9263 76.047 26.1247 75.9726 26.2777 75.8237C26.4306 75.6749 26.5071 75.4847 26.5071 75.2532C26.5071 75.0217 26.4306 74.8336 26.2777 74.6889C26.1247 74.5401 25.9263 74.4656 25.6823 74.4656H24.5971V76.047H25.6823Z" fill="#0D0F52"/>
  <g filter="url(#filter7_d_75_91)">
  <rect x="66.207" y="126.014" width="4.96111" height="4.96111" rx="2.48056" fill="#2D91FE"/>
  </g>
  <path d="M81.1623 131.099C80.2246 131.099 79.4838 130.792 78.9397 130.178L79.3651 129.631C79.8571 130.181 80.4648 130.456 81.1883 130.456C81.6571 130.456 82.0015 130.358 82.2215 130.161C82.4414 129.958 82.5514 129.724 82.5514 129.458C82.5514 129.255 82.4877 129.084 82.3604 128.945C82.2331 128.807 82.0681 128.7 81.8655 128.624C81.6687 128.543 81.4459 128.471 81.197 128.407C80.9539 128.344 80.7108 128.274 80.4677 128.199C80.2246 128.118 80.0018 128.022 79.7992 127.912C79.6024 127.802 79.4404 127.646 79.313 127.444C79.1857 127.241 79.122 127.001 79.122 126.723C79.122 126.248 79.3101 125.863 79.6863 125.568C80.0626 125.267 80.5372 125.117 81.1102 125.117C81.9726 125.117 82.6585 125.386 83.1678 125.924L82.7337 126.454C82.3112 125.991 81.7527 125.759 81.0581 125.759C80.7108 125.759 80.4243 125.846 80.1986 126.02C79.9786 126.188 79.8687 126.407 79.8687 126.68C79.8687 126.882 79.9526 127.05 80.1204 127.183C80.2941 127.316 80.5053 127.415 80.7542 127.478C81.0089 127.542 81.2838 127.623 81.579 127.721C81.88 127.814 82.1549 127.915 82.4038 128.025C82.6585 128.129 82.8697 128.3 83.0376 128.537C83.2112 128.775 83.298 129.061 83.298 129.397C83.298 129.872 83.1215 130.274 82.7684 130.604C82.4212 130.934 81.8858 131.099 81.1623 131.099ZM86.5445 131.099C85.9542 131.099 85.4825 130.853 85.1294 130.361V132.592H84.4782V126.801H85.1294V127.426C85.2857 127.206 85.4882 127.03 85.7371 126.897C85.986 126.763 86.2551 126.697 86.5445 126.697C87.1002 126.697 87.5488 126.897 87.8902 127.296C88.2375 127.69 88.4112 128.222 88.4112 128.893C88.4112 129.565 88.2375 130.1 87.8902 130.5C87.5488 130.899 87.1002 131.099 86.5445 131.099ZM86.3796 130.517C86.7905 130.517 87.1176 130.366 87.3606 130.065C87.6037 129.759 87.7253 129.368 87.7253 128.893C87.7253 128.419 87.6037 128.031 87.3606 127.73C87.1176 127.429 86.7905 127.279 86.3796 127.279C86.1307 127.279 85.8876 127.345 85.6503 127.478C85.4188 127.606 85.2451 127.762 85.1294 127.947V129.84C85.2451 130.031 85.4188 130.193 85.6503 130.326C85.8876 130.453 86.1307 130.517 86.3796 130.517ZM91.4695 131.099C90.8444 131.099 90.3322 130.896 89.9328 130.491C89.5334 130.08 89.3338 129.547 89.3338 128.893C89.3338 128.28 89.5305 127.762 89.9241 127.339C90.3177 126.911 90.8097 126.697 91.4001 126.697C92.0194 126.697 92.5085 126.911 92.8673 127.339C93.2319 127.762 93.4143 128.297 93.4143 128.945V129.11H90.0196C90.0486 129.521 90.1991 129.866 90.4711 130.144C90.7431 130.421 91.0962 130.56 91.5303 130.56C92.0512 130.56 92.4824 130.384 92.8239 130.031L93.1364 130.456C92.7081 130.884 92.1525 131.099 91.4695 131.099ZM92.7718 128.633C92.766 128.274 92.6445 127.953 92.4072 127.669C92.1699 127.38 91.8313 127.235 91.3914 127.235C90.9746 127.235 90.6447 127.377 90.4016 127.661C90.1643 127.944 90.037 128.268 90.0196 128.633H92.7718ZM98.0806 130.994H97.4295V128.251C97.4295 127.898 97.3484 127.649 97.1864 127.504C97.0243 127.354 96.7928 127.279 96.4918 127.279C96.2487 127.279 96.0114 127.342 95.7799 127.47C95.5542 127.597 95.3776 127.75 95.2503 127.93V130.994H94.5991V126.801H95.2503V127.409C95.4124 127.218 95.6294 127.053 95.9014 126.914C96.1735 126.769 96.4542 126.697 96.7436 126.697C97.6349 126.697 98.0806 127.148 98.0806 128.051V130.994ZM100.57 131.099C100.264 131.099 100.032 131.015 99.8759 130.847C99.7196 130.679 99.6415 130.436 99.6415 130.118V127.374H98.9469V126.801H99.6415V125.655H100.293V126.801H101.143V127.374H100.293V129.979C100.293 130.141 100.327 130.271 100.397 130.369C100.472 130.468 100.579 130.517 100.718 130.517C100.909 130.517 101.057 130.459 101.161 130.343L101.352 130.829C101.161 131.009 100.9 131.099 100.57 131.099Z" fill="#0D0F52"/>
  <g filter="url(#filter8_d_75_91)">
  <rect x="116.493" y="126.014" width="4.96111" height="4.96111" rx="2.48056" fill="#4BDFFF"/>
  </g>
  <path d="M133.367 130.994H129.573V125.204H133.367V125.846H130.294V127.713H133.306V128.355H130.294V130.352H133.367V130.994ZM138.093 130.994H137.338L136.079 129.275L134.82 130.994H134.073L135.679 128.841L134.16 126.801H134.915L136.079 128.399L137.242 126.801H137.997L136.478 128.841L138.093 130.994ZM140.5 131.099C139.88 131.099 139.377 130.89 138.989 130.474C138.601 130.051 138.407 129.524 138.407 128.893C138.407 128.263 138.601 127.739 138.989 127.322C139.377 126.905 139.88 126.697 140.5 126.697C141.148 126.697 141.66 126.94 142.037 127.426L141.602 127.826C141.336 127.461 140.98 127.279 140.535 127.279C140.095 127.279 139.742 127.429 139.475 127.73C139.215 128.031 139.085 128.419 139.085 128.893C139.085 129.368 139.215 129.759 139.475 130.065C139.742 130.366 140.095 130.517 140.535 130.517C140.974 130.517 141.33 130.335 141.602 129.97L142.037 130.369C141.66 130.856 141.148 131.099 140.5 131.099ZM144.972 131.099C144.347 131.099 143.835 130.896 143.435 130.491C143.036 130.08 142.836 129.547 142.836 128.893C142.836 128.28 143.033 127.762 143.427 127.339C143.82 126.911 144.312 126.697 144.903 126.697C145.522 126.697 146.011 126.911 146.37 127.339C146.734 127.762 146.917 128.297 146.917 128.945V129.11H143.522C143.551 129.521 143.702 129.866 143.974 130.144C144.246 130.421 144.599 130.56 145.033 130.56C145.554 130.56 145.985 130.384 146.326 130.031L146.639 130.456C146.211 130.884 145.655 131.099 144.972 131.099ZM146.274 128.633C146.269 128.274 146.147 127.953 145.91 127.669C145.672 127.38 145.334 127.235 144.894 127.235C144.477 127.235 144.147 127.377 143.904 127.661C143.667 127.944 143.539 128.268 143.522 128.633H146.274ZM150.168 131.099C149.578 131.099 149.106 130.853 148.753 130.361V132.592H148.102V126.801H148.753V127.426C148.909 127.206 149.112 127.03 149.361 126.897C149.609 126.763 149.879 126.697 150.168 126.697C150.724 126.697 151.172 126.897 151.514 127.296C151.861 127.69 152.035 128.222 152.035 128.893C152.035 129.565 151.861 130.1 151.514 130.5C151.172 130.899 150.724 131.099 150.168 131.099ZM150.003 130.517C150.414 130.517 150.741 130.366 150.984 130.065C151.227 129.759 151.349 129.368 151.349 128.893C151.349 128.419 151.227 128.031 150.984 127.73C150.741 127.429 150.414 127.279 150.003 127.279C149.754 127.279 149.511 127.345 149.274 127.478C149.042 127.606 148.869 127.762 148.753 127.947V129.84C148.869 130.031 149.042 130.193 149.274 130.326C149.511 130.453 149.754 130.517 150.003 130.517ZM154.259 131.099C153.953 131.099 153.721 131.015 153.565 130.847C153.409 130.679 153.33 130.436 153.33 130.118V127.374H152.636V126.801H153.33V125.655H153.982V126.801H154.832V127.374H153.982V129.979C153.982 130.141 154.016 130.271 154.086 130.369C154.161 130.468 154.268 130.517 154.407 130.517C154.598 130.517 154.746 130.459 154.85 130.343L155.041 130.829C154.85 131.009 154.589 131.099 154.259 131.099ZM157.775 131.099C157.15 131.099 156.638 130.896 156.238 130.491C155.839 130.08 155.639 129.547 155.639 128.893C155.639 128.28 155.836 127.762 156.23 127.339C156.623 126.911 157.115 126.697 157.706 126.697C158.325 126.697 158.814 126.911 159.173 127.339C159.538 127.762 159.72 128.297 159.72 128.945V129.11H156.325C156.354 129.521 156.505 129.866 156.777 130.144C157.049 130.421 157.402 130.56 157.836 130.56C158.357 130.56 158.788 130.384 159.13 130.031L159.442 130.456C159.014 130.884 158.458 131.099 157.775 131.099ZM159.077 128.633C159.072 128.274 158.95 127.953 158.713 127.669C158.476 127.38 158.137 127.235 157.697 127.235C157.28 127.235 156.95 127.377 156.707 127.661C156.47 127.944 156.343 128.268 156.325 128.633H159.077ZM164.595 130.994H163.943V130.369C163.585 130.856 163.113 131.099 162.528 131.099C161.973 131.099 161.521 130.902 161.174 130.508C160.832 130.109 160.662 129.573 160.662 128.902C160.662 128.236 160.832 127.704 161.174 127.305C161.521 126.899 161.973 126.697 162.528 126.697C163.107 126.697 163.579 126.943 163.943 127.435V125.204H164.595V130.994ZM162.685 130.517C162.939 130.517 163.182 130.453 163.414 130.326C163.645 130.199 163.822 130.042 163.943 129.857V127.956C163.822 127.765 163.643 127.606 163.405 127.478C163.174 127.345 162.933 127.279 162.685 127.279C162.274 127.279 161.947 127.432 161.704 127.739C161.46 128.04 161.339 128.427 161.339 128.902C161.339 129.377 161.46 129.764 161.704 130.065C161.947 130.366 162.274 130.517 162.685 130.517Z" fill="#0D0F52"/>
  <defs>
  <filter id="filter0_d_75_91" x="42.2549" y="64.3215" width="19.8444" height="36.5882" filterUnits="userSpaceOnUse" color-interpolation-filters="sRGB">
  <feFlood flood-opacity="0" result="BackgroundImageFix"/>
  <feColorMatrix in="SourceAlpha" type="matrix" values="0 0 0 0 0 0 0 0 0 0 0 0 0 0 0 0 0 0 127 0" result="hardAlpha"/>
  <feMorphology radius="12.4028" operator="erode" in="SourceAlpha" result="effect1_dropShadow_75_91"/>
  <feOffset dy="19.8444"/>
  <feGaussianBlur stdDeviation="8.06181"/>
  <feColorMatrix type="matrix" values="0 0 0 0 0.116319 0 0 0 0 0.278708 0 0 0 0 0.416667 0 0 0 0.24 0"/>
  <feBlend mode="normal" in2="BackgroundImageFix" result="effect1_dropShadow_75_91"/>
  <feBlend mode="normal" in="SourceGraphic" in2="effect1_dropShadow_75_91" result="shape"/>
  </filter>
  <filter id="filter1_d_75_91" x="67.5773" y="18.4312" width="19.8444" height="82.4785" filterUnits="userSpaceOnUse" color-interpolation-filters="sRGB">
  <feFlood flood-opacity="0" result="BackgroundImageFix"/>
  <feColorMatrix in="SourceAlpha" type="matrix" values="0 0 0 0 0 0 0 0 0 0 0 0 0 0 0 0 0 0 127 0" result="hardAlpha"/>
  <feMorphology radius="12.4028" operator="erode" in="SourceAlpha" result="effect1_dropShadow_75_91"/>
  <feOffset dy="19.8444"/>
  <feGaussianBlur stdDeviation="8.06181"/>
  <feColorMatrix type="matrix" values="0 0 0 0 0.116319 0 0 0 0 0.278708 0 0 0 0 0.416667 0 0 0 0.24 0"/>
  <feBlend mode="normal" in2="BackgroundImageFix" result="effect1_dropShadow_75_91"/>
  <feBlend mode="normal" in="SourceGraphic" in2="effect1_dropShadow_75_91" result="shape"/>
  </filter>
  <filter id="filter2_d_75_91" x="92.8996" y="38.8958" width="19.8444" height="62.0139" filterUnits="userSpaceOnUse" color-interpolation-filters="sRGB">
  <feFlood flood-opacity="0" result="BackgroundImageFix"/>
  <feColorMatrix in="SourceAlpha" type="matrix" values="0 0 0 0 0 0 0 0 0 0 0 0 0 0 0 0 0 0 127 0" result="hardAlpha"/>
  <feMorphology radius="12.4028" operator="erode" in="SourceAlpha" result="effect1_dropShadow_75_91"/>
  <feOffset dy="19.8444"/>
  <feGaussianBlur stdDeviation="8.06181"/>
  <feColorMatrix type="matrix" values="0 0 0 0 0.116319 0 0 0 0 0.278708 0 0 0 0 0.416667 0 0 0 0.24 0"/>
  <feBlend mode="normal" in2="BackgroundImageFix" result="effect1_dropShadow_75_91"/>
  <feBlend mode="normal" in="SourceGraphic" in2="effect1_dropShadow_75_91" result="shape"/>
  </filter>
  <filter id="filter3_d_75_91" x="118.222" y="54.3993" width="19.8444" height="46.5104" filterUnits="userSpaceOnUse" color-interpolation-filters="sRGB">
  <feFlood flood-opacity="0" result="BackgroundImageFix"/>
  <feColorMatrix in="SourceAlpha" type="matrix" values="0 0 0 0 0 0 0 0 0 0 0 0 0 0 0 0 0 0 127 0" result="hardAlpha"/>
  <feMorphology radius="12.4028" operator="erode" in="SourceAlpha" result="effect1_dropShadow_75_91"/>
  <feOffset dy="19.8444"/>
  <feGaussianBlur stdDeviation="8.06181"/>
  <feColorMatrix type="matrix" values="0 0 0 0 0.116319 0 0 0 0 0.278708 0 0 0 0 0.416667 0 0 0 0.24 0"/>
  <feBlend mode="normal" in2="BackgroundImageFix" result="effect1_dropShadow_75_91"/>
  <feBlend mode="normal" in="SourceGraphic" in2="effect1_dropShadow_75_91" result="shape"/>
  </filter>
  <filter id="filter4_d_75_91" x="143.544" y="16.5708" width="19.8444" height="84.3389" filterUnits="userSpaceOnUse" color-interpolation-filters="sRGB">
  <feFlood flood-opacity="0" result="BackgroundImageFix"/>
  <feColorMatrix in="SourceAlpha" type="matrix" values="0 0 0 0 0 0 0 0 0 0 0 0 0 0 0 0 0 0 127 0" result="hardAlpha"/>
  <feMorphology radius="12.4028" operator="erode" in="SourceAlpha" result="effect1_dropShadow_75_91"/>
  <feOffset dy="19.8444"/>
  <feGaussianBlur stdDeviation="8.06181"/>
  <feColorMatrix type="matrix" values="0 0 0 0 0.116319 0 0 0 0 0.278708 0 0 0 0 0.416667 0 0 0 0.24 0"/>
  <feBlend mode="normal" in2="BackgroundImageFix" result="effect1_dropShadow_75_91"/>
  <feBlend mode="normal" in="SourceGraphic" in2="effect1_dropShadow_75_91" result="shape"/>
  </filter>
  <filter id="filter5_d_75_91" x="168.867" y="36.4153" width="19.8444" height="64.4944" filterUnits="userSpaceOnUse" color-interpolation-filters="sRGB">
  <feFlood flood-opacity="0" result="BackgroundImageFix"/>
  <feColorMatrix in="SourceAlpha" type="matrix" values="0 0 0 0 0 0 0 0 0 0 0 0 0 0 0 0 0 0 127 0" result="hardAlpha"/>
  <feMorphology radius="12.4028" operator="erode" in="SourceAlpha" result="effect1_dropShadow_75_91"/>
  <feOffset dy="19.8444"/>
  <feGaussianBlur stdDeviation="8.06181"/>
  <feColorMatrix type="matrix" values="0 0 0 0 0.116319 0 0 0 0 0.278708 0 0 0 0 0.416667 0 0 0 0.24 0"/>
  <feBlend mode="normal" in2="BackgroundImageFix" result="effect1_dropShadow_75_91"/>
  <feBlend mode="normal" in="SourceGraphic" in2="effect1_dropShadow_75_91" result="shape"/>
  </filter>
  <filter id="filter6_d_75_91" x="194.189" y="7.88892" width="19.8444" height="93.0208" filterUnits="userSpaceOnUse" color-interpolation-filters="sRGB">
  <feFlood flood-opacity="0" result="BackgroundImageFix"/>
  <feColorMatrix in="SourceAlpha" type="matrix" values="0 0 0 0 0 0 0 0 0 0 0 0 0 0 0 0 0 0 127 0" result="hardAlpha"/>
  <feMorphology radius="12.4028" operator="erode" in="SourceAlpha" result="effect1_dropShadow_75_91"/>
  <feOffset dy="19.8444"/>
  <feGaussianBlur stdDeviation="8.06181"/>
  <feColorMatrix type="matrix" values="0 0 0 0 0.116319 0 0 0 0 0.278708 0 0 0 0 0.416667 0 0 0 0.24 0"/>
  <feBlend mode="normal" in2="BackgroundImageFix" result="effect1_dropShadow_75_91"/>
  <feBlend mode="normal" in="SourceGraphic" in2="effect1_dropShadow_75_91" result="shape"/>
  </filter>
  <filter id="filter7_d_75_91" x="62.4862" y="126.014" width="12.4028" height="28.5264" filterUnits="userSpaceOnUse" color-interpolation-filters="sRGB">
  <feFlood flood-opacity="0" result="BackgroundImageFix"/>
  <feColorMatrix in="SourceAlpha" type="matrix" values="0 0 0 0 0 0 0 0 0 0 0 0 0 0 0 0 0 0 127 0" result="hardAlpha"/>
  <feMorphology radius="12.4028" operator="erode" in="SourceAlpha" result="effect1_dropShadow_75_91"/>
  <feOffset dy="19.8444"/>
  <feGaussianBlur stdDeviation="8.06181"/>
  <feColorMatrix type="matrix" values="0 0 0 0 0.116319 0 0 0 0 0.278708 0 0 0 0 0.416667 0 0 0 0.24 0"/>
  <feBlend mode="normal" in2="BackgroundImageFix" result="effect1_dropShadow_75_91"/>
  <feBlend mode="normal" in="SourceGraphic" in2="effect1_dropShadow_75_91" result="shape"/>
  </filter>
  <filter id="filter8_d_75_91" x="112.772" y="126.014" width="12.4028" height="28.5264" filterUnits="userSpaceOnUse" color-interpolation-filters="sRGB">
  <feFlood flood-opacity="0" result="BackgroundImageFix"/>
  <feColorMatrix in="SourceAlpha" type="matrix" values="0 0 0 0 0 0 0 0 0 0 0 0 0 0 0 0 0 0 127 0" result="hardAlpha"/>
  <feMorphology radius="12.4028" operator="erode" in="SourceAlpha" result="effect1_dropShadow_75_91"/>
  <feOffset dy="19.8444"/>
  <feGaussianBlur stdDeviation="8.06181"/>
  <feColorMatrix type="matrix" values="0 0 0 0 0.116319 0 0 0 0 0.278708 0 0 0 0 0.416667 0 0 0 0.24 0"/>
  <feBlend mode="normal" in2="BackgroundImageFix" result="effect1_dropShadow_75_91"/>
  <feBlend mode="normal" in="SourceGraphic" in2="effect1_dropShadow_75_91" result="shape"/>
  </filter>
  </defs>
  </svg>
  