<svg width="86" height="28" viewBox="0 0 86 28" fill="none" xmlns="http://www.w3.org/2000/svg">
  <path d="M39.7987 18.8903H31.6129V6.48129H34.8128V16.0996H39.7987V18.8903Z" fill="#0D0F52"/>
  <path d="M45.4249 19.1135C44.011 19.1135 42.8389 18.6856 41.9087 17.8298C40.9785 16.9616 40.5134 15.8144 40.5134 14.3881C40.5134 13.061 40.9599 11.9447 41.8529 11.0393C42.7583 10.1339 43.9055 9.68121 45.2947 9.68121C46.6466 9.68121 47.7504 10.1401 48.6062 11.0579C49.462 11.9633 49.8899 13.1726 49.8899 14.6857V15.2997H43.49C43.5769 15.7462 43.8187 16.1245 44.2156 16.4345C44.6125 16.7446 45.121 16.8996 45.7411 16.8996C46.0884 16.8996 46.4853 16.8314 46.9318 16.695C47.3907 16.5461 47.738 16.3601 47.9736 16.1369L49.1829 17.9229C48.7488 18.3073 48.1907 18.605 47.5085 18.8159C46.8388 19.0143 46.1442 19.1135 45.4249 19.1135ZM47.1551 13.4393C47.1055 13.0424 46.9318 12.6889 46.6342 12.3788C46.3365 12.0563 45.89 11.8951 45.2947 11.8951C44.7365 11.8951 44.3086 12.0501 44.011 12.3602C43.7133 12.6703 43.5273 13.03 43.4528 13.4393H47.1551Z" fill="#0D0F52"/>
  <path d="M60.0636 18.8903H57.1986V13.6997C57.1986 12.7075 56.7086 12.2114 55.7288 12.2114C55.0343 12.2114 54.4513 12.5028 53.98 13.0858V18.8903H51.115V9.90446H53.98V11.0021C54.7366 10.1215 55.7722 9.68121 57.0869 9.68121C58.0792 9.68121 58.8233 9.94167 59.3194 10.4626C59.8155 10.9711 60.0636 11.6595 60.0636 12.5276V18.8903Z" fill="#0D0F52"/>
  <path d="M70.8498 18.8903H68.0034V17.8484C67.2716 18.6918 66.3848 19.1135 65.343 19.1135C64.1895 19.1135 63.2345 18.698 62.4779 17.867C61.7338 17.0237 61.3617 15.864 61.3617 14.3881C61.3617 12.9493 61.7338 11.8083 62.4779 10.9649C63.2345 10.1091 64.1895 9.68121 65.343 9.68121C66.422 9.68121 67.3088 10.1091 68.0034 10.9649V6.48129H70.8498V18.8903ZM66.2732 16.5834C66.5832 16.5834 66.8995 16.5089 67.222 16.3601C67.5569 16.1989 67.8173 16.0004 68.0034 15.7648V13.0114C67.8173 12.7757 67.5569 12.5835 67.222 12.4346C66.8995 12.2858 66.5832 12.2114 66.2732 12.2114C65.6902 12.2114 65.2127 12.4098 64.8407 12.8067C64.481 13.2036 64.3011 13.7307 64.3011 14.3881C64.3011 15.0454 64.4872 15.5787 64.8593 15.988C65.2313 16.3849 65.7026 16.5834 66.2732 16.5834Z" fill="#0D0F52"/>
  <path d="M77.0602 19.1135C75.5843 19.1135 74.3999 18.6546 73.5069 17.7368C72.6139 16.819 72.1674 15.7028 72.1674 14.3881C72.1674 13.0734 72.6139 11.9633 73.5069 11.0579C74.3999 10.1401 75.5843 9.68121 77.0602 9.68121C78.5486 9.68121 79.7392 10.1401 80.6322 11.0579C81.5252 11.9633 81.9718 13.0734 81.9718 14.3881C81.9718 15.7028 81.5252 16.819 80.6322 17.7368C79.7392 18.6546 78.5486 19.1135 77.0602 19.1135ZM75.6277 15.9694C75.975 16.3787 76.4525 16.5834 77.0602 16.5834C77.668 16.5834 78.1455 16.3787 78.4928 15.9694C78.8525 15.5477 79.0323 15.0206 79.0323 14.3881C79.0323 13.7679 78.8525 13.2532 78.4928 12.8439C78.1455 12.4222 77.668 12.2114 77.0602 12.2114C76.4525 12.2114 75.975 12.4222 75.6277 12.8439C75.2929 13.2532 75.1254 13.7679 75.1254 14.3881C75.1254 15.0206 75.2929 15.5477 75.6277 15.9694Z" fill="#0D0F52"/>
  <path fill-rule="evenodd" clip-rule="evenodd" d="M19.0882 1.4514C20.6419 3.00512 20.6419 5.52417 19.0881 7.07786L17.5189 8.64712C17.0345 9.13147 17.0345 9.91678 17.5189 10.4011L20.9926 13.8749C22.5463 15.4286 22.5463 17.9477 20.9926 19.5014C19.4389 21.0551 16.9198 21.0551 15.3661 19.5014L8.20214 12.3373C7.45602 11.5912 7.03686 10.5792 7.03687 9.52408C7.03687 8.46891 7.45604 7.45696 8.20216 6.71085L13.4617 1.45136C15.0154 -0.102333 17.5345 -0.102314 19.0882 1.4514Z" fill="url(#paint0_radial_1_607)"/>
  <path fill-rule="evenodd" clip-rule="evenodd" d="M1.89523 8.3569C3.44891 6.80317 5.96794 6.80315 7.52164 8.35686L14.6856 15.5209C15.4318 16.267 15.8509 17.279 15.8509 18.3342C15.8509 19.3894 15.4317 20.4013 14.6856 21.1475L9.42605 26.407C7.87234 27.9607 5.35331 27.9606 3.79965 26.4069C2.24598 24.8531 2.24602 22.3341 3.79974 20.7804L5.36897 19.2112C5.85333 18.7268 5.85333 17.9415 5.36897 17.4571L1.89527 13.9834C0.341566 12.4297 0.34155 9.91062 1.89523 8.3569Z" fill="#4BDFFF"/>
  <path fill-rule="evenodd" clip-rule="evenodd" d="M15.6023 19.7193C15.5214 19.6504 15.4427 19.5777 15.3663 19.5013L8.20226 12.3373C7.45614 11.5911 7.03698 10.5792 7.03699 9.52402C7.03699 9.04661 7.1228 8.57805 7.28588 8.13895C7.36671 8.20783 7.44545 8.28047 7.52184 8.35687L14.6859 15.5209C15.432 16.267 15.8511 17.279 15.8511 18.3342C15.8511 18.8116 15.7653 19.2802 15.6023 19.7193Z" fill="#2D91FE"/>
  <defs>
  <radialGradient id="paint0_radial_1_607" cx="0" cy="0" r="1" gradientUnits="userSpaceOnUse" gradientTransform="translate(16.0357 16.5101) rotate(-84.6107) scale(16.2961 102.046)">
  <stop stop-color="#2DADFE"/>
  <stop offset="1" stop-color="#2D91FE"/>
  </radialGradient>
  </defs>
  </svg>
  